<svg width="800" height="176" viewBox="0 0 800 176" fill="none" xmlns="http://www.w3.org/2000/svg">
<g clip-path="url(#clip0_1946_51)">
<path d="M411.4 91.6001H435.7V22.0001H483.4V0.100098H363.1V22.0001H411.4V91.6001Z" fill="#24388D"/>
<path d="M661.301 0.100098H639.301V91.6001H661.301V0.100098Z" fill="#24388D"/>
<path d="M791.2 43.3C785.7 37.7 778.9 34.9 771.2 34.9H711.4C709.7 34.9 708.2 34.2 706.9 33C705.6 31.7 705 30.2 705 28.5C705 26.7 705.6 25.1 706.9 23.9C708.1 22.6 709.6 22 711.4 22H793.6V0H711.4C703.7 0 696.9 2.8 691.4 8.4C685.9 13.9 683 20.7 683 28.4C683 36.1 685.8 42.9 691.4 48.4C697 53.9 703.7 56.8 711.4 56.8H771.2C773 56.8 774.5 57.4 775.7 58.7C776.9 59.9 777.6 61.5 777.6 63.2C777.6 65 777 66.5 775.7 67.7C774.5 68.9 773 69.5 771.2 69.5H683.4V91.7H771.2C778.9 91.7 785.7 88.9 791.2 83.3C796.8 77.8 799.6 71 799.6 63.3C799.6 55.6 796.7 48.9 791.2 43.3Z" fill="#24388D"/>
<path d="M137.3 8.5001C131.7 14.1001 128.9 20.8001 128.9 28.5001V63.2001C128.9 70.9001 131.7 77.6001 137.3 83.2001C142.9 88.8001 149.6 91.6001 157.3 91.6001H229.8V69.7001H157.3C155.7 69.7001 154.2 69.1001 152.9 67.8001C151.6 66.5001 151 65.0001 151 63.3001V55.0001H229.9V36.2001H151V28.4001C151 26.8001 151.6 25.3001 153 24.0001C154.3 22.7001 155.8 22.0001 157.4 22.0001H229.9V0.100098H157.4C149.5 0.100098 142.8 3.0001 137.3 8.5001Z" fill="#24388D"/>
<path d="M84.0004 0H0.400391V21.9H84.0004C85.6004 21.9 87.0004 22.6 88.4004 23.9C89.7004 25.3 90.4004 26.7 90.4004 28.3V63.2C90.4004 65 89.8004 66.5 88.5004 67.7C87.3004 68.9 85.8004 69.6 84.0004 69.6H22.4004V35H0.400391V91.5H84.0004C91.7004 91.5 98.4004 88.7 104 83.1C109.5 77.5 112.4 70.8 112.4 63.1V28.4C112.4 20.7 109.6 13.9 104 8.4C98.5004 2.8 91.7004 0 84.0004 0Z" fill="#24388D"/>
<path d="M610.6 45.0999L610.9 44.4999C613.9 39.3999 615.4 33.8999 615.4 28.2999C615.4 20.5999 612.6 13.7999 607 8.2999C601.5 2.7999 594.7 -0.100098 587 -0.100098H496.5V21.7999H587.7C589.5 21.7999 591 22.3999 592.2 23.6999C593.4 24.9999 594.1 26.4999 594.1 28.2999C594.1 29.9999 593.5 31.4999 592.2 32.7999C590.9 34.1999 589.3 34.8999 587.6 34.8999L496.6 34.7999V91.3999H518.6V56.6999H589.7C591 56.6999 592.2 57.3999 593.3 58.7999C594.4 60.1999 595 61.6999 595 63.0999V91.4999H617V63.0999C617 56.4999 615 50.6999 611 45.5999L610.6 45.0999Z" fill="#24388D"/>
<path d="M257.9 8.5001C252.4 14.0001 249.5 20.8001 249.5 28.5001V63.2001C249.5 70.9001 252.3 77.6001 257.9 83.2001C263.4 88.8001 270.2 91.6001 277.9 91.6001H350.4V69.7001H277.9C276.2 69.7001 274.7 69.1001 273.5 67.8001C272.2 66.5001 271.6 65.1001 271.6 63.4001V28.4001C271.6 26.8001 272.2 25.4001 273.6 24.0001C274.9 22.7001 276.4 22.0001 278 22.0001H350.5V0.100098H278C270.2 0.100098 263.5 3.0001 257.9 8.5001Z" fill="#24388D"/>
<path d="M5.2 152.2C5.2 153.7 5.3 155 5.6 156.1C5.9 157.2 6.4 158.1 7.2 158.9C8 159.6 9 160.2 10.4 160.5C11.7 160.9 13.5 161 15.6 161H24.1C26 161 27.7 160.8 29 160.4C30.3 160 31.4 159.4 32.2 158.7C33 158 33.6 157 33.9 155.9C34.2 154.8 34.4 153.5 34.4 152.1V146.2C34.4 144.3 34.1 142.8 33.6 141.7C33.1 140.6 32.3 139.7 31.4 139.1C30.4 138.5 29.2 138.1 27.8 137.9C26.4 137.7 24.8 137.6 23.1 137.6H16.1C14.3 137.6 12.8 137.7 11.4 137.9C10 138.1 8.9 138.5 8 139.1C7.1 139.7 6.4 140.6 6 141.7C5.6 142.8 5.3 144.3 5.3 146V152.2H5.2ZM39.6 164.8H34.7V159.9H34.6C33.8 161.8 32.5 163.2 30.5 164C28.5 164.9 26.1 165.3 23.4 165.3H16.1C13.7 165.3 11.5 165.1 9.6 164.8C7.6 164.4 5.9 163.8 4.5 162.8C3.1 161.8 2 160.5 1.2 158.8C0.4 157.1 0 154.9 0 152.2V146.7C0 144.2 0.3 142.1 0.8 140.4C1.3 138.7 2.2 137.3 3.5 136.2C4.8 135.1 6.5 134.4 8.5 133.9C10.6 133.4 13.2 133.2 16.4 133.2H24.4C27.4 133.2 29.7 133.6 31.2 134.3C32.7 135 33.8 136.2 34.3 137.8H34.4V120.7H39.6V164.8Z" fill="#24388D"/>
<path d="M82.4 143.9C82.4 143.1 82.2 142.4 81.9 141.6C81.6 140.8 81 140.2 80.2 139.6C79.4 139 78.3 138.5 76.9 138.2C75.5 137.8 73.7 137.7 71.6 137.7H64C61.9 137.7 60.2 137.8 58.9 138C57.6 138.2 56.5 138.6 55.7 139.2C54.9 139.8 54.3 140.7 54 141.8C53.7 142.9 53.4 144.3 53.3 146.1H82.5V143.9H82.4ZM48 145.9C48 143.1 48.4 140.9 49.3 139.2C50.2 137.5 51.4 136.3 52.8 135.4C54.2 134.5 55.9 134 57.7 133.7C59.5 133.5 61.3 133.3 63.2 133.3H71.6C73.9 133.3 76.1 133.5 78.1 133.8C80.1 134.2 81.8 134.8 83.2 135.8C84.6 136.8 85.7 138.2 86.5 139.9C87.3 141.6 87.7 143.9 87.7 146.6V150.1H53.2V152C53.2 153.8 53.4 155.2 53.9 156.4C54.3 157.5 55.1 158.4 56.1 159.1C57.1 159.8 58.4 160.2 60 160.5C61.6 160.8 63.5 160.9 65.8 160.9H73C74.6 160.9 76 160.8 77.2 160.7C78.4 160.6 79.3 160.3 80.1 159.9C80.9 159.5 81.4 158.9 81.8 158.2C82.2 157.5 82.4 156.5 82.5 155.3H87.7V155.9C87.7 157.7 87.3 159.2 86.6 160.3C85.9 161.5 84.9 162.4 83.5 163.1C82.1 163.8 80.5 164.3 78.6 164.6C76.7 164.9 74.5 165.1 72.1 165.1H62.6C60.9 165.1 59.2 165 57.4 164.7C55.7 164.5 54.1 163.9 52.7 163C51.3 162.1 50.2 160.8 49.3 159.2C48.4 157.5 48 155.3 48 152.4V145.9Z" fill="#24388D"/>
<path d="M98.6008 138.1H91.8008V133.8H98.6008V126.4H103.801V133.8H124.501V138.1H103.801V153.5C103.801 155 103.901 156.2 104.201 157.1C104.501 158.1 104.901 158.8 105.501 159.4C106.101 160 106.901 160.4 107.901 160.6C108.901 160.8 110.101 161 111.501 161H113.101C114.801 161 116.201 160.9 117.301 160.7C118.401 160.5 119.201 160.1 119.701 159.5C120.301 158.9 120.601 158.1 120.801 157.1C121.001 156.1 121.101 154.7 121.101 153.1V150.8H125.401V154.2C125.401 155.7 125.301 157.2 125.101 158.5C124.901 159.9 124.401 161 123.601 162.1C122.801 163.1 121.601 163.9 120.101 164.5C118.501 165.1 116.301 165.4 113.501 165.4H110.601C108.201 165.4 106.201 165.1 104.601 164.6C103.001 164.1 101.801 163.3 100.901 162.4C100.001 161.5 99.4008 160.4 99.0008 159.3C98.7008 158.1 98.5008 156.9 98.5008 155.7V138.1H98.6008Z" fill="#24388D"/>
<path d="M164.9 143.9C164.9 143.1 164.7 142.4 164.4 141.6C164.1 140.8 163.5 140.2 162.7 139.6C161.9 139 160.8 138.5 159.4 138.2C158 137.8 156.2 137.7 154.1 137.7H146.5C144.4 137.7 142.7 137.8 141.4 138C140.1 138.2 139 138.6 138.2 139.2C137.4 139.8 136.8 140.7 136.5 141.8C136.2 142.9 135.9 144.3 135.8 146.1H165V143.9H164.9ZM130.4 145.9C130.4 143.1 130.8 140.9 131.7 139.2C132.6 137.5 133.8 136.3 135.2 135.4C136.6 134.5 138.3 134 140.1 133.7C141.9 133.5 143.7 133.3 145.6 133.3H154C156.3 133.3 158.5 133.5 160.5 133.8C162.5 134.2 164.2 134.8 165.6 135.8C167 136.8 168.1 138.2 168.9 139.9C169.7 141.6 170.1 143.9 170.1 146.6V150.1H135.7V152C135.7 153.8 135.9 155.2 136.4 156.4C136.8 157.5 137.6 158.4 138.6 159.1C139.6 159.8 140.9 160.2 142.5 160.5C144.1 160.8 146 160.9 148.3 160.9H155.5C157.1 160.9 158.5 160.8 159.7 160.7C160.9 160.6 161.8 160.3 162.6 159.9C163.4 159.5 163.9 158.9 164.3 158.2C164.7 157.5 164.9 156.5 165 155.3H170.2V155.9C170.2 157.7 169.8 159.2 169.1 160.3C168.4 161.5 167.4 162.4 166 163.1C164.6 163.8 163 164.3 161.1 164.6C159.2 164.9 157 165.1 154.6 165.1H145C143.3 165.1 141.6 165 139.8 164.7C138.1 164.5 136.5 163.9 135.1 163C133.7 162.1 132.6 160.8 131.7 159.2C130.8 157.5 130.4 155.3 130.4 152.4V145.9Z" fill="#24388D"/>
<path d="M176.899 145.9C176.899 143.1 177.399 140.9 178.299 139.2C179.199 137.5 180.399 136.3 181.899 135.4C183.399 134.5 184.999 134 186.899 133.7C188.799 133.5 190.599 133.3 192.499 133.3H201.199C206.099 133.3 209.499 134.2 211.599 136.1C213.699 138 214.699 140.5 214.699 143.8V144.6H209.799V144C209.799 142.7 209.599 141.6 209.199 140.8C208.799 140 208.199 139.3 207.499 138.9C206.799 138.4 205.799 138.1 204.799 137.9C203.699 137.7 202.499 137.6 201.199 137.6H191.599C190.399 137.6 189.199 137.7 187.999 137.8C186.799 138 185.799 138.3 184.899 138.9C183.999 139.5 183.299 140.3 182.799 141.4C182.299 142.5 181.999 144 181.999 146V152.5C181.999 154.2 182.299 155.7 182.799 156.8C183.299 157.9 183.999 158.8 184.999 159.4C185.899 160 186.999 160.5 188.299 160.7C189.599 160.9 190.999 161.1 192.599 161.1H201.399C202.599 161.1 203.799 161 204.799 160.8C205.899 160.6 206.799 160.2 207.699 159.7C208.499 159.2 209.199 158.5 209.599 157.7C210.099 156.9 210.299 155.8 210.299 154.6V153.6H215.199V154.5C215.199 156.4 214.899 158.1 214.399 159.5C213.899 160.9 213.099 162 211.999 162.9C210.899 163.8 209.499 164.4 207.799 164.8C206.099 165.2 203.999 165.4 201.599 165.4H189.799C188.599 165.4 187.299 165.3 185.799 165C184.299 164.8 182.899 164.2 181.499 163.3C180.199 162.4 178.999 161.2 178.099 159.5C177.199 157.8 176.699 155.6 176.699 152.8V145.9H176.899Z" fill="#24388D"/>
<path d="M226.101 138.1H219.301V133.8H226.101V126.4H231.301V133.8H252.001V138.1H231.301V153.5C231.301 155 231.401 156.2 231.701 157.1C232.001 158.1 232.401 158.8 233.001 159.4C233.601 160 234.401 160.4 235.401 160.6C236.401 160.8 237.601 161 239.001 161H240.601C242.301 161 243.701 160.9 244.801 160.7C245.901 160.5 246.701 160.1 247.201 159.5C247.801 158.9 248.101 158.1 248.301 157.1C248.501 156.1 248.601 154.7 248.601 153.1V150.8H252.901V154.2C252.901 155.7 252.801 157.2 252.601 158.5C252.401 159.9 251.901 161 251.101 162.1C250.301 163.1 249.101 163.9 247.601 164.5C246.001 165.1 243.801 165.4 241.001 165.4H238.101C235.701 165.4 233.701 165.1 232.101 164.6C230.501 164.1 229.301 163.3 228.401 162.4C227.501 161.5 226.901 160.4 226.501 159.3C226.201 158.1 226.001 156.9 226.001 155.7V138.1H226.101Z" fill="#24388D"/>
<path d="M260 133.8H265.2V164.8H260V133.8ZM260 120.8H265.2V126.5H260V120.8Z" fill="#24388D"/>
<path d="M275.801 133.8H280.701V139.2H280.801C281.301 138 281.901 137 282.601 136.3C283.301 135.6 284.201 135 285.301 134.5C286.301 134.1 287.501 133.8 288.901 133.6C290.201 133.4 291.701 133.4 293.301 133.4H301.101C303.501 133.4 305.601 133.7 307.201 134.3C308.901 134.9 310.201 135.6 311.201 136.6C312.201 137.6 312.901 138.7 313.301 140C313.701 141.3 313.901 142.6 313.901 144V165H308.701V145.3C308.701 144.2 308.601 143.1 308.301 142.2C308.101 141.3 307.501 140.5 306.801 139.8C306.001 139.2 304.901 138.6 303.401 138.3C301.901 137.9 299.901 137.8 297.301 137.8H296.001C293.001 137.8 290.501 138 288.501 138.3C286.601 138.6 285.001 139.2 283.901 139.9C282.801 140.6 282.001 141.6 281.601 142.8C281.201 144 281.001 145.6 281.001 147.4V165H275.801V133.8Z" fill="#24388D"/>
<path d="M356.8 147.1C356.8 145.6 356.7 144.3 356.4 143.2C356.1 142 355.6 141.1 354.9 140.2C354.2 139.4 353.2 138.7 352 138.3C350.8 137.9 349.3 137.6 347.4 137.6H336.8C335.5 137.6 334.2 137.7 333.1 137.9C332 138.1 331 138.5 330.2 139C329.4 139.5 328.7 140.2 328.3 141C327.8 141.9 327.6 142.9 327.6 144.2V149.9C327.6 151.7 327.8 153.2 328.1 154.4C328.4 155.6 328.9 156.5 329.6 157.3C330.3 158 331.2 158.5 332.4 158.8C333.5 159.1 334.9 159.3 336.5 159.3H346.6C350.3 159.3 353 158.6 354.5 157.1C356 155.7 356.8 153.6 356.8 150.9V147.1ZM362 164.8C362 167.2 361.5 169.1 360.6 170.5C359.7 172 358.5 173.1 357.1 173.9C355.7 174.7 354.1 175.3 352.4 175.6C350.7 175.9 349 176 347.4 176H335.6C333.2 176 331.2 175.7 329.6 175.1C328 174.5 326.8 173.8 325.9 172.9C325 172 324.4 171 324 169.9C323.6 168.8 323.5 167.8 323.5 166.8V165.8H328.4V166.7C328.4 167.7 328.6 168.6 329.1 169.2C329.6 169.9 330.2 170.4 331 170.8C331.8 171.2 332.8 171.5 333.9 171.6C335 171.8 336.1 171.8 337.4 171.8H342.5C345.1 171.8 347.3 171.7 349.1 171.6C350.9 171.5 352.4 171.2 353.6 170.6C354.8 170.1 355.6 169.2 356.2 168.1C356.7 167 357 165.3 357 163.2V158.6H356.9C356.6 159.3 356.3 160 355.8 160.6C355.4 161.2 354.7 161.7 353.9 162.1C353.1 162.5 352.1 162.9 350.9 163.1C349.7 163.3 348.2 163.4 346.3 163.4H335.6C331.2 163.4 328 162.3 325.8 160.2C323.7 158.1 322.6 155 322.6 151V145.8C322.6 143 323.1 140.8 324 139.1C324.9 137.4 326.1 136.2 327.4 135.3C328.8 134.4 330.3 133.9 331.9 133.6C333.5 133.4 335.1 133.2 336.5 133.2H347.6C348.6 133.2 349.5 133.3 350.5 133.4C351.5 133.6 352.4 133.9 353.2 134.3C354 134.7 354.8 135.3 355.5 136.1C356.2 136.9 356.7 137.9 357.1 139.2H357.2V133.7H362.1V164.8H362Z" fill="#24388D"/>
<path d="M403.9 138.1H397.1V133.8H403.9V126.4H409.1V133.8H429.8V138.1H409.1V153.5C409.1 155 409.2 156.2 409.5 157.1C409.8 158.1 410.2 158.8 410.8 159.4C411.4 160 412.2 160.4 413.2 160.6C414.2 160.8 415.4 161 416.8 161H418.4C420.1 161 421.5 160.9 422.6 160.7C423.7 160.5 424.5 160.1 425 159.5C425.6 158.9 425.9 158.1 426.1 157.1C426.3 156.1 426.4 154.7 426.4 153.1V150.8H430.7V154.2C430.7 155.7 430.6 157.2 430.4 158.5C430.2 159.9 429.7 161 428.9 162.1C428.1 163.1 426.9 163.9 425.4 164.5C423.8 165.1 421.6 165.4 418.8 165.4H415.9C413.5 165.4 411.5 165.1 409.9 164.6C408.3 164.1 407.1 163.3 406.2 162.4C405.3 161.5 404.7 160.4 404.3 159.3C404 158.1 403.8 156.9 403.8 155.7V138.1H403.9Z" fill="#24388D"/>
<path d="M437.1 120.8H442.3V139.2H442.4C442.9 138 443.5 137 444.3 136.3C445 135.6 445.9 135 447 134.5C448 134.1 449.2 133.8 450.6 133.6C451.9 133.4 453.4 133.4 455 133.4H462.5C464.9 133.4 467 133.7 468.6 134.3C470.3 134.9 471.6 135.6 472.6 136.6C473.6 137.6 474.3 138.7 474.7 140C475.1 141.3 475.3 142.6 475.3 144V165H470V145.3C470 144.2 469.9 143.1 469.6 142.2C469.4 141.3 468.8 140.5 468.1 139.8C467.3 139.2 466.2 138.6 464.7 138.3C463.2 137.9 461.2 137.8 458.6 137.8H457.3C454.3 137.8 451.8 138 449.8 138.3C447.9 138.6 446.3 139.2 445.2 139.9C444.1 140.6 443.3 141.6 442.9 142.8C442.5 144 442.3 145.6 442.3 147.4V165H437.1V120.8Z" fill="#24388D"/>
<path d="M518.099 143.9C518.099 143.1 517.899 142.4 517.599 141.6C517.299 140.8 516.699 140.2 515.899 139.6C515.099 139 513.999 138.5 512.599 138.2C511.199 137.8 509.399 137.7 507.299 137.7H499.699C497.599 137.7 495.899 137.8 494.599 138C493.299 138.2 492.199 138.6 491.399 139.2C490.599 139.8 489.999 140.7 489.699 141.8C489.399 142.9 489.099 144.3 488.999 146.1H518.199V143.9H518.099ZM483.699 145.9C483.699 143.1 484.099 140.9 484.999 139.2C485.899 137.5 487.099 136.3 488.499 135.4C489.899 134.5 491.599 134 493.399 133.7C495.199 133.5 496.999 133.3 498.899 133.3H507.299C509.599 133.3 511.799 133.5 513.799 133.8C515.799 134.2 517.499 134.8 518.899 135.8C520.299 136.8 521.399 138.2 522.199 139.9C522.999 141.6 523.399 143.9 523.399 146.6V150.1H488.999V152C488.999 153.8 489.199 155.2 489.699 156.4C490.099 157.5 490.899 158.4 491.899 159.1C492.899 159.8 494.199 160.2 495.799 160.5C497.399 160.8 499.299 160.9 501.599 160.9H508.799C510.399 160.9 511.799 160.8 512.999 160.7C514.199 160.6 515.099 160.3 515.899 159.9C516.699 159.5 517.199 158.9 517.599 158.2C517.999 157.5 518.199 156.5 518.299 155.3H523.499V155.9C523.499 157.7 523.099 159.2 522.399 160.3C521.699 161.5 520.699 162.4 519.299 163.1C517.899 163.8 516.299 164.3 514.399 164.6C512.499 164.9 510.299 165.1 507.899 165.1H498.399C496.699 165.1 494.999 165 493.199 164.7C491.499 164.5 489.899 163.9 488.499 163C487.099 162.1 485.999 160.8 485.099 159.2C484.199 157.5 483.799 155.3 483.799 152.4V145.9H483.699Z" fill="#24388D"/>
<path d="M564.3 138.1H557.6V133.8H564.3V131.1C564.3 129.3 564.6 127.7 565.1 126.4C565.6 125.1 566.3 124 567.3 123.2C568.2 122.4 569.3 121.8 570.5 121.4C571.8 121 573.1 120.8 574.5 120.8H584.3V125.1H574.9C573 125.1 571.6 125.6 570.7 126.5C569.9 127.5 569.5 128.6 569.5 130V133.8H584.3V138.1H569.5V164.8H564.3V138.1Z" fill="#24388D"/>
<path d="M624.001 159.5C623.501 160.7 622.901 161.7 622.101 162.4C621.401 163.2 620.501 163.7 619.401 164.2C618.401 164.6 617.201 164.9 615.801 165.1C614.501 165.3 613.001 165.3 611.401 165.3H603.601C601.201 165.3 599.101 165 597.501 164.4C595.801 163.8 594.501 163.1 593.501 162.1C592.501 161.1 591.801 160 591.401 158.8C591.001 157.5 590.801 156.2 590.801 154.8V133.8H596.001V153.5C596.001 154.6 596.101 155.7 596.401 156.6C596.601 157.5 597.201 158.3 597.901 159C598.701 159.6 599.801 160.2 601.301 160.5C602.801 160.9 604.801 161 607.401 161H608.701C611.701 161 614.201 160.8 616.201 160.5C618.101 160.2 619.701 159.7 620.801 158.9C621.901 158.2 622.701 157.2 623.101 156C623.501 154.8 623.701 153.2 623.701 151.4V133.8H628.901V164.8H624.001V159.5Z" fill="#24388D"/>
<path d="M641.601 138.1H634.801V133.8H641.601V126.4H646.801V133.8H667.501V138.1H646.801V153.5C646.801 155 646.901 156.2 647.201 157.1C647.501 158.1 647.901 158.8 648.501 159.4C649.101 160 649.901 160.4 650.901 160.6C651.901 160.8 653.101 161 654.501 161H656.101C657.801 161 659.201 160.9 660.301 160.7C661.401 160.5 662.201 160.1 662.701 159.5C663.301 158.9 663.601 158.1 663.801 157.1C664.001 156.1 664.101 154.7 664.101 153.1V150.8H668.401V154.2C668.401 155.7 668.301 157.2 668.101 158.5C667.901 159.9 667.401 161 666.601 162.1C665.801 163.1 664.601 163.9 663.101 164.5C661.501 165.1 659.301 165.4 656.501 165.4H653.601C651.201 165.4 649.201 165.1 647.601 164.6C646.001 164.1 644.801 163.3 643.901 162.4C643.001 161.5 642.401 160.4 642.001 159.3C641.701 158.1 641.501 156.9 641.501 155.7V138.1H641.601Z" fill="#24388D"/>
<path d="M708.001 159.5C707.501 160.7 706.901 161.7 706.101 162.4C705.401 163.2 704.501 163.7 703.401 164.2C702.401 164.6 701.201 164.9 699.801 165.1C698.501 165.3 697.001 165.3 695.401 165.3H687.601C685.201 165.3 683.101 165 681.501 164.4C679.801 163.8 678.501 163.1 677.501 162.1C676.501 161.1 675.801 160 675.401 158.8C675.001 157.5 674.801 156.2 674.801 154.8V133.8H680.001V153.5C680.001 154.6 680.101 155.7 680.401 156.6C680.601 157.5 681.201 158.3 681.901 159C682.701 159.6 683.801 160.2 685.301 160.5C686.801 160.9 688.801 161 691.401 161H692.701C695.701 161 698.201 160.8 700.201 160.5C702.101 160.2 703.701 159.7 704.801 158.9C705.901 158.2 706.701 157.2 707.101 156C707.501 154.8 707.701 153.2 707.701 151.4V133.8H712.901V164.8H708.001V159.5Z" fill="#24388D"/>
<path d="M723.199 133.8H728.099V138.3H728.199C728.699 137.3 729.299 136.5 729.999 135.8C730.699 135.2 731.499 134.6 732.299 134.3C733.099 133.9 733.999 133.7 734.899 133.5C735.799 133.4 736.699 133.3 737.599 133.3H742.499C744.899 133.3 746.999 133.5 748.599 133.9C750.299 134.3 751.599 134.9 752.599 135.8C753.599 136.7 754.299 137.8 754.799 139.1C755.199 140.5 755.499 142.1 755.499 144V147.7H750.599V146.4C750.599 144.5 750.499 143 750.199 141.8C749.899 140.6 749.399 139.7 748.699 139.1C747.899 138.5 746.799 138.1 745.399 137.9C743.999 137.7 742.099 137.6 739.799 137.6H736.599C735.199 137.6 733.999 137.8 732.999 138.2C731.999 138.6 731.099 139.2 730.499 139.8C729.799 140.5 729.299 141.3 728.999 142.2C728.699 143.1 728.499 144.1 728.499 145.1V164.8H723.299V133.8H723.199Z" fill="#24388D"/>
<path d="M794.8 143.9C794.8 143.1 794.6 142.4 794.3 141.6C794 140.8 793.4 140.2 792.6 139.6C791.8 139 790.7 138.5 789.3 138.2C787.9 137.8 786.1 137.7 784 137.7H776.3C774.2 137.7 772.5 137.8 771.2 138C769.9 138.2 768.8 138.6 768 139.2C767.2 139.8 766.6 140.7 766.3 141.8C766 142.9 765.7 144.3 765.6 146.1H794.8V143.9ZM760.4 145.9C760.4 143.1 760.8 140.9 761.7 139.2C762.6 137.5 763.8 136.3 765.2 135.4C766.6 134.5 768.3 134 770.1 133.7C771.9 133.5 773.7 133.3 775.6 133.3H784C786.3 133.3 788.5 133.5 790.5 133.8C792.5 134.2 794.2 134.8 795.6 135.8C797 136.8 798.1 138.2 798.9 139.9C799.7 141.6 800.1 143.9 800.1 146.6V150.1H765.7V152C765.7 153.8 765.9 155.2 766.4 156.4C766.8 157.5 767.6 158.4 768.6 159.1C769.6 159.8 770.9 160.2 772.5 160.5C774.1 160.8 776 160.9 778.3 160.9H785.5C787.1 160.9 788.5 160.8 789.7 160.7C790.9 160.6 791.8 160.3 792.6 159.9C793.4 159.5 793.9 158.9 794.3 158.2C794.7 157.5 794.9 156.5 795 155.3H800.2V155.9C800.2 157.7 799.8 159.2 799.1 160.3C798.4 161.5 797.4 162.4 796 163.1C794.6 163.8 793 164.3 791.1 164.6C789.2 164.9 787 165.1 784.6 165.1H775.1C773.4 165.1 771.7 165 769.9 164.7C768.2 164.5 766.6 163.9 765.2 163C763.8 162.1 762.7 160.8 761.8 159.2C760.9 157.5 760.5 155.3 760.5 152.4V145.9H760.4Z" fill="#24388D"/>
</g>
<defs>
<clipPath id="clip0_1946_51">
<rect width="800" height="176" fill="white"/>
</clipPath>
</defs>
</svg>
